<mxfile host="app.diagrams.net" modified="2022-03-11T07:07:01.960Z" agent="5.0 (Macintosh; Intel Mac OS X 10_15_7) AppleWebKit/537.36 (KHTML, like Gecko) Chrome/99.0.4844.51 Safari/537.36" etag="0TEX3GarCYLu5v_8eJQI" version="16.6.7" type="github">
  <diagram id="9ZpSaxzcpz4ULXaL1X-T" name="第 1 页">
    <mxGraphModel dx="1773" dy="614" grid="1" gridSize="10" guides="1" tooltips="1" connect="1" arrows="1" fold="1" page="1" pageScale="1" pageWidth="827" pageHeight="1169" background="none" math="0" shadow="0">
      <root>
        <mxCell id="0" />
        <mxCell id="1" parent="0" />
        <mxCell id="ykaxEmCodkbpOijnUfok-5" style="edgeStyle=orthogonalEdgeStyle;rounded=0;orthogonalLoop=1;jettySize=auto;html=1;exitX=0;exitY=0.5;exitDx=0;exitDy=0;entryX=1;entryY=0.5;entryDx=0;entryDy=0;sketch=1;" edge="1" parent="1" source="QuoUFKUlMbN6moup9SOk-3" target="ykaxEmCodkbpOijnUfok-1">
          <mxGeometry relative="1" as="geometry" />
        </mxCell>
        <mxCell id="ykaxEmCodkbpOijnUfok-8" value="http 1.1" style="edgeLabel;html=1;align=center;verticalAlign=middle;resizable=0;points=[];sketch=1;rounded=0;fontFamily=Comic Sans MS;fontColor=#000000;" vertex="1" connectable="0" parent="ykaxEmCodkbpOijnUfok-5">
          <mxGeometry x="0.0909" y="3" relative="1" as="geometry">
            <mxPoint as="offset" />
          </mxGeometry>
        </mxCell>
        <mxCell id="QuoUFKUlMbN6moup9SOk-3" value="http client" style="rounded=0;whiteSpace=wrap;html=1;fillStyle=auto;fillColor=#e1d5e7;gradientDirection=north;sketch=1;strokeColor=#9673a6;fontFamily=Comic Sans MS;fontColor=#000000;gradientColor=none;glass=0;shadow=0;" parent="1" vertex="1">
          <mxGeometry x="540" y="585" width="120" height="50" as="geometry" />
        </mxCell>
        <mxCell id="i-7tSpso-G0HtrBFlRGV-29" value="Clickhouse Server" style="rounded=0;whiteSpace=wrap;html=1;fillStyle=auto;fillColor=#f8cecc;gradientDirection=north;sketch=1;strokeColor=#b85450;fontFamily=Comic Sans MS;fontColor=#000000;strokeWidth=1;" parent="1" vertex="1">
          <mxGeometry x="130" y="585" width="300" height="225" as="geometry" />
        </mxCell>
        <mxCell id="ykaxEmCodkbpOijnUfok-1" value="http&lt;br&gt;8123" style="rounded=0;whiteSpace=wrap;html=1;fillStyle=auto;fillColor=#d5e8d4;gradientDirection=north;sketch=1;strokeColor=#82b366;fontFamily=Comic Sans MS;fontColor=#000000;" vertex="1" parent="1">
          <mxGeometry x="360" y="585" width="70" height="50" as="geometry" />
        </mxCell>
        <mxCell id="ykaxEmCodkbpOijnUfok-2" value="native tcp&lt;br&gt;9000" style="rounded=0;whiteSpace=wrap;html=1;fillStyle=auto;fillColor=#d5e8d4;gradientDirection=north;sketch=1;strokeColor=#82b366;fontFamily=Comic Sans MS;fontColor=#000000;" vertex="1" parent="1">
          <mxGeometry x="130" y="672.5" width="70" height="50" as="geometry" />
        </mxCell>
        <mxCell id="ykaxEmCodkbpOijnUfok-3" value="mysql&lt;br&gt;9100" style="rounded=0;whiteSpace=wrap;html=1;fillStyle=auto;fillColor=#d5e8d4;gradientDirection=north;sketch=1;strokeColor=#82b366;fontFamily=Comic Sans MS;fontColor=#000000;" vertex="1" parent="1">
          <mxGeometry x="360" y="760" width="70" height="50" as="geometry" />
        </mxCell>
        <mxCell id="ykaxEmCodkbpOijnUfok-4" value="gRPC&lt;br&gt;9004" style="rounded=0;whiteSpace=wrap;html=1;fillStyle=auto;fillColor=#d5e8d4;gradientDirection=north;sketch=1;strokeColor=#82b366;fontFamily=Comic Sans MS;fontColor=#000000;" vertex="1" parent="1">
          <mxGeometry x="360" y="672.5" width="70" height="50" as="geometry" />
        </mxCell>
        <mxCell id="ykaxEmCodkbpOijnUfok-7" value="" style="edgeStyle=orthogonalEdgeStyle;rounded=0;orthogonalLoop=1;jettySize=auto;html=1;sketch=1;" edge="1" parent="1" source="ykaxEmCodkbpOijnUfok-6" target="ykaxEmCodkbpOijnUfok-4">
          <mxGeometry relative="1" as="geometry" />
        </mxCell>
        <mxCell id="ykaxEmCodkbpOijnUfok-9" value="http 2.0&lt;br&gt;&amp;nbsp;protobuf" style="edgeLabel;html=1;align=center;verticalAlign=middle;resizable=0;points=[];sketch=1;rounded=0;fontFamily=Comic Sans MS;fontColor=#000000;" vertex="1" connectable="0" parent="ykaxEmCodkbpOijnUfok-7">
          <mxGeometry x="-0.0545" y="1" relative="1" as="geometry">
            <mxPoint as="offset" />
          </mxGeometry>
        </mxCell>
        <mxCell id="ykaxEmCodkbpOijnUfok-6" value="gRPC client" style="rounded=0;whiteSpace=wrap;html=1;fillStyle=auto;fillColor=#e1d5e7;gradientDirection=north;sketch=1;strokeColor=#9673a6;fontFamily=Comic Sans MS;fontColor=#000000;gradientColor=none;glass=0;shadow=0;" vertex="1" parent="1">
          <mxGeometry x="540" y="672.5" width="120" height="50" as="geometry" />
        </mxCell>
        <mxCell id="ykaxEmCodkbpOijnUfok-11" value="" style="edgeStyle=orthogonalEdgeStyle;rounded=0;orthogonalLoop=1;jettySize=auto;html=1;sketch=1;" edge="1" parent="1" source="ykaxEmCodkbpOijnUfok-10" target="ykaxEmCodkbpOijnUfok-3">
          <mxGeometry relative="1" as="geometry" />
        </mxCell>
        <mxCell id="ykaxEmCodkbpOijnUfok-12" value="mysql &lt;br&gt;protocol" style="edgeLabel;html=1;align=center;verticalAlign=middle;resizable=0;points=[];sketch=1;rounded=0;fontFamily=Comic Sans MS;fontColor=#000000;" vertex="1" connectable="0" parent="ykaxEmCodkbpOijnUfok-11">
          <mxGeometry x="0.0182" y="2" relative="1" as="geometry">
            <mxPoint as="offset" />
          </mxGeometry>
        </mxCell>
        <mxCell id="ykaxEmCodkbpOijnUfok-10" value="mysql client" style="rounded=0;whiteSpace=wrap;html=1;fillStyle=auto;fillColor=#e1d5e7;gradientDirection=north;sketch=1;strokeColor=#9673a6;fontFamily=Comic Sans MS;fontColor=#000000;gradientColor=none;glass=0;shadow=0;" vertex="1" parent="1">
          <mxGeometry x="540" y="760" width="120" height="50" as="geometry" />
        </mxCell>
        <mxCell id="ykaxEmCodkbpOijnUfok-17" style="edgeStyle=orthogonalEdgeStyle;orthogonalLoop=1;jettySize=auto;html=1;exitX=1;exitY=0.5;exitDx=0;exitDy=0;entryX=0;entryY=0.5;entryDx=0;entryDy=0;sketch=1;curved=1;rounded=0;" edge="1" parent="1" source="ykaxEmCodkbpOijnUfok-14" target="i-7tSpso-G0HtrBFlRGV-29">
          <mxGeometry relative="1" as="geometry" />
        </mxCell>
        <mxCell id="ykaxEmCodkbpOijnUfok-14" value="inter-server" style="rounded=0;whiteSpace=wrap;html=1;fillStyle=auto;fillColor=#e1d5e7;gradientDirection=north;sketch=1;strokeColor=#9673a6;fontFamily=Comic Sans MS;fontColor=#000000;" vertex="1" parent="1">
          <mxGeometry x="-60" y="760" width="120" height="50" as="geometry" />
        </mxCell>
        <mxCell id="ykaxEmCodkbpOijnUfok-18" style="edgeStyle=orthogonalEdgeStyle;orthogonalLoop=1;jettySize=auto;html=1;exitX=1;exitY=0.5;exitDx=0;exitDy=0;sketch=1;curved=1;rounded=0;" edge="1" parent="1" source="ykaxEmCodkbpOijnUfok-15" target="ykaxEmCodkbpOijnUfok-2">
          <mxGeometry relative="1" as="geometry" />
        </mxCell>
        <mxCell id="ykaxEmCodkbpOijnUfok-15" value="command-line client" style="rounded=0;whiteSpace=wrap;html=1;fillStyle=auto;fillColor=#e1d5e7;gradientDirection=north;sketch=1;strokeColor=#9673a6;fontFamily=Comic Sans MS;fontColor=#000000;" vertex="1" parent="1">
          <mxGeometry x="-60" y="670" width="120" height="50" as="geometry" />
        </mxCell>
        <mxCell id="ykaxEmCodkbpOijnUfok-19" style="edgeStyle=orthogonalEdgeStyle;orthogonalLoop=1;jettySize=auto;html=1;exitX=1;exitY=0.5;exitDx=0;exitDy=0;sketch=1;curved=1;rounded=0;" edge="1" parent="1" source="ykaxEmCodkbpOijnUfok-16">
          <mxGeometry relative="1" as="geometry">
            <mxPoint x="130" y="700" as="targetPoint" />
            <Array as="points">
              <mxPoint x="110" y="610" />
              <mxPoint x="110" y="700" />
            </Array>
          </mxGeometry>
        </mxCell>
        <mxCell id="ykaxEmCodkbpOijnUfok-16" value="other c++ client" style="rounded=0;whiteSpace=wrap;html=1;fillStyle=auto;fillColor=#e1d5e7;gradientDirection=north;sketch=1;strokeColor=#9673a6;fontFamily=Comic Sans MS;fontColor=#000000;" vertex="1" parent="1">
          <mxGeometry x="-60" y="585" width="120" height="50" as="geometry" />
        </mxCell>
      </root>
    </mxGraphModel>
  </diagram>
</mxfile>
